<svg width="80" height="30" viewBox="0 0 80 30" fill="none" xmlns="http://www.w3.org/2000/svg">
<path d="M9.68564 0.121978C9.86916 0.121978 10.1478 0.0948715 10.2974 0.0609889C10.4469 0.0271062 11.1198 0.0135531 11.7927 0.0338827C12.4656 0.0474358 13.2948 0.088095 13.6279 0.121978C13.9609 0.15586 14.4367 0.216849 14.6814 0.257508C14.9261 0.298168 15.2795 0.359157 15.463 0.399816C15.6534 0.440475 15.9116 0.501464 16.0408 0.52857C16.1699 0.562453 16.5234 0.664101 16.8224 0.765749C17.1215 0.867397 17.6245 1.07747 17.9439 1.23333C18.2634 1.38241 18.7052 1.63315 18.9295 1.78223C19.1538 1.93131 19.3781 2.08717 19.4257 2.12106C19.4732 2.16172 19.6568 2.31758 19.8335 2.46666C20.0102 2.61574 20.3093 2.91391 20.4928 3.13076C20.6831 3.34761 20.8666 3.55768 20.9074 3.60512L20.9154 3.61625C20.9613 3.6803 21.1073 3.8837 21.2472 4.09303C21.3968 4.31666 21.6211 4.70969 21.7434 4.97398C21.8658 5.23149 21.9949 5.50933 22.0221 5.58387C22.0493 5.65841 22.1105 5.82782 22.158 5.95658C22.2056 6.08533 22.2668 6.25475 22.294 6.32929C22.3212 6.40383 22.3823 6.63423 22.4231 6.83753C22.4639 7.04076 22.525 7.40654 22.5658 7.65049L22.5658 7.65071C22.5998 7.89467 22.6338 8.25382 22.6338 8.80272L22.0425 8.82983C21.7094 8.84338 20.418 8.89082 19.1674 8.9247C17.4477 8.97891 16.8768 8.97214 16.8428 8.91793C16.8156 8.87049 16.7884 8.76206 16.7884 8.66719C16.7884 8.57232 16.6865 8.20639 16.5641 7.85401C16.4418 7.49485 16.2923 7.12214 16.2311 7.02049C16.1631 6.91885 16.1088 6.81042 16.1088 6.76976C16.1088 6.7291 15.8573 6.45126 15.5514 6.13954C15.2048 5.79394 14.8581 5.5161 14.6474 5.42123C14.4639 5.33314 14.2464 5.23826 14.1716 5.20438C14.0969 5.1705 13.791 5.0824 13.4919 5.00109C13.0297 4.87911 12.7443 4.85878 11.5548 4.85878C10.6304 4.852 10.0323 4.87911 9.7876 4.9401C9.58369 4.98753 9.23025 5.0824 9.00595 5.15695C8.78165 5.23149 8.40102 5.38057 8.15633 5.49577C7.87766 5.6313 7.565 5.85493 7.30671 6.11922C7.07562 6.34962 6.85811 6.60713 6.81733 6.702C6.77655 6.79687 6.70858 6.97984 6.6678 7.10859C6.62702 7.23734 6.59303 7.49485 6.59303 7.6846C6.59303 7.86756 6.62702 8.13185 6.6678 8.2606C6.70858 8.38935 6.79014 8.6062 6.85132 8.73496C6.90569 8.86371 7.12319 9.14155 7.3339 9.34485C7.54461 9.54814 7.91164 9.8192 8.15633 9.94118C8.40102 10.0632 8.63891 10.158 8.68649 10.158C8.72727 10.158 8.76805 10.1851 8.76805 10.2258C8.76805 10.2665 8.83603 10.3071 8.92439 10.3207C9.00595 10.3342 9.23025 10.402 9.41376 10.463C9.60408 10.5307 9.81478 10.6053 9.88955 10.6324C9.96432 10.6595 10.1614 10.7273 10.3314 10.7747C10.5013 10.8221 10.6644 10.8831 10.7052 10.9102C10.746 10.9306 10.8615 10.9712 10.9771 10.9915C11.0926 11.0119 11.3033 11.0661 11.4528 11.1067C11.6024 11.1474 11.8471 11.2152 11.9966 11.2491C12.1461 11.2897 12.384 11.3439 12.5268 11.3778C12.6627 11.4185 12.8938 11.4727 13.0365 11.5133L13.5803 11.6489C13.7366 11.6828 13.9813 11.7437 14.124 11.7844C14.26 11.8183 14.4707 11.8657 14.5794 11.886C14.6882 11.9132 14.8445 11.9538 14.9193 11.9809C14.9941 12.0148 15.164 12.069 15.2931 12.1097C15.4223 12.1571 15.599 12.191 15.6873 12.191C15.7689 12.191 15.8369 12.2113 15.8369 12.2384C15.8369 12.2723 16.0136 12.3333 16.2243 12.3875C16.4418 12.4349 16.7477 12.5366 16.9108 12.6044C17.0671 12.6789 17.2574 12.7331 17.3322 12.7331C17.407 12.7331 17.4681 12.7602 17.4681 12.8009C17.4681 12.8415 17.5157 12.8686 17.5701 12.8686C17.6245 12.8686 17.842 12.9432 18.0459 13.0381C18.2498 13.1329 18.4401 13.2075 18.4741 13.2075C18.5013 13.2075 18.7052 13.3023 18.9295 13.4175C19.1538 13.5327 19.5208 13.736 19.7451 13.8716C19.9694 14.0071 20.1665 14.1359 20.1869 14.1562C20.2073 14.1765 20.3297 14.2714 20.4588 14.3663C20.5879 14.4611 20.9278 14.7729 21.2065 15.0507C21.4851 15.3353 21.8522 15.7487 22.0221 15.9791C22.192 16.2095 22.4503 16.6296 22.6066 16.921C22.7562 17.2056 22.9465 17.6258 23.0212 17.8494C23.096 18.073 23.198 18.439 23.2455 18.6626C23.2931 18.8862 23.3611 19.1641 23.4019 19.2725C23.4494 19.3945 23.4766 20.045 23.4834 20.9327C23.4834 21.904 23.454 22.4846 23.3951 22.6743C23.3543 22.8369 23.2795 23.0944 23.2387 23.2503C23.198 23.4129 23.1028 23.7247 23.028 23.9483C22.9465 24.1719 22.7901 24.5514 22.6814 24.7954C22.5658 25.0393 22.3212 25.4662 22.1308 25.7441C21.9405 26.0219 21.7434 26.3133 21.6822 26.3878C21.6279 26.4624 21.3084 26.8012 20.9686 27.14C20.6355 27.4789 20.1257 27.9058 19.8471 28.0955C19.5684 28.2853 19.079 28.5631 18.7596 28.7122C18.4401 28.8613 18.0391 29.0442 17.8624 29.1256C17.6788 29.2069 17.4953 29.2679 17.4545 29.2679C17.407 29.2679 17.2574 29.3018 17.1283 29.3492C16.9992 29.3898 16.8292 29.4441 16.7545 29.4779C16.6797 29.5051 16.4962 29.5457 16.3466 29.5728C16.1971 29.5999 15.9388 29.6474 15.7689 29.6812C15.599 29.7151 15.2523 29.7761 14.9873 29.81C14.7222 29.8439 14.0357 29.9049 13.4579 29.9455C12.853 29.993 11.9014 30.0065 11.2285 29.9862C10.5896 29.9659 9.85557 29.9184 9.60408 29.8778C9.3458 29.8439 9.01954 29.7964 8.87001 29.7829C8.72641 29.7699 8.55147 29.7381 8.4716 29.7236L8.46219 29.7219C8.38743 29.7016 8.14274 29.6474 7.91844 29.5999C7.69414 29.5593 7.19116 29.417 6.79694 29.2882C6.40272 29.1594 5.92014 28.9765 5.72982 28.8884C5.53271 28.8003 5.3356 28.7257 5.30161 28.7257C5.26763 28.7257 5.23365 28.7054 5.23365 28.6715C5.23365 28.6444 5.13169 28.5834 5.01614 28.5292C4.8938 28.475 4.57434 28.2853 4.31606 28.1159C4.05777 27.9397 3.62957 27.6008 3.37128 27.3637C3.1062 27.1265 2.82073 26.8419 2.72557 26.7334C2.63042 26.625 2.48768 26.4759 2.41291 26.3946C2.33135 26.3133 2.14783 26.0693 1.9915 25.8457C1.84197 25.6221 1.63806 25.3036 1.54291 25.1342C1.44095 24.9648 1.29142 24.6734 1.19626 24.4904L1.18064 24.4569C1.09252 24.2677 0.967294 23.9988 0.890399 23.8263C0.815633 23.6501 0.747664 23.4807 0.747664 23.44C0.747664 23.3994 0.720476 23.3181 0.686491 23.2503C0.652506 23.1893 0.564146 22.925 0.48938 22.6607C0.414613 22.3965 0.312659 22.0034 0.271878 21.7798C0.224299 21.5562 0.163127 21.2987 0.135939 21.2038C0.101954 21.1089 0.0611725 20.8514 0 20.2212L0.462192 20.1399C0.713679 20.0924 1.14868 20.0382 1.42736 20.0179C1.70603 19.9976 2.20901 19.9501 2.54885 19.9162C2.8887 19.8756 3.50042 19.8146 3.90824 19.7807C4.31606 19.7401 4.87341 19.6926 5.60748 19.6316L5.7774 20.3228C5.87256 20.7023 5.96772 21.0276 6.0017 21.0412C6.02889 21.0547 6.04928 21.1225 6.04928 21.1835C6.04928 21.2512 6.11045 21.441 6.18522 21.6104C6.26678 21.7798 6.38233 22.0238 6.4503 22.1525C6.51827 22.2813 6.61342 22.4642 6.6678 22.5591C6.72218 22.654 6.77655 22.7421 6.79694 22.7624C6.81733 22.7827 6.91249 22.9047 7.00085 23.0335C7.08921 23.1622 7.3271 23.4333 7.52421 23.623C7.72133 23.8195 7.89805 23.9822 7.91844 23.9822C7.93883 23.9822 8.08156 24.0703 8.24469 24.1787C8.40102 24.2871 8.68649 24.443 8.87001 24.5243C9.06032 24.6056 9.27103 24.7005 9.34579 24.7276C9.42056 24.7547 9.57009 24.8089 9.68564 24.8496C9.80119 24.8835 10.0595 24.9512 10.2634 24.9851C10.4673 25.0258 10.8819 25.0935 11.181 25.1274C11.48 25.1681 11.8471 25.2019 11.9966 25.2019C12.1461 25.2019 12.5743 25.1681 12.9482 25.1274C13.322 25.0867 13.7366 25.0325 13.8658 24.9987C13.9949 24.9648 14.26 24.9038 14.4435 24.8563C14.6338 24.8157 15.0348 24.6598 15.3475 24.5175C15.6534 24.3684 15.9728 24.199 16.0544 24.1313C16.1359 24.0703 16.3602 23.8602 16.5438 23.6772C16.7341 23.4875 16.9584 23.2571 17.0467 23.1487C17.1283 23.047 17.2642 22.8234 17.339 22.6404C17.4206 22.4642 17.5157 22.2609 17.5429 22.1864C17.5769 22.1118 17.6313 21.9153 17.672 21.7459C17.706 21.5765 17.74 21.2851 17.74 21.1021C17.74 20.9124 17.706 20.6413 17.6653 20.4923C17.6245 20.3432 17.5225 20.0653 17.4342 19.8824C17.3458 19.6926 17.1623 19.4216 17.0127 19.2725C16.87 19.1166 16.6117 18.8998 16.435 18.7778C16.2515 18.6558 16.0816 18.5609 16.0408 18.5609C16 18.5609 15.9728 18.5338 15.9728 18.4932C15.9728 18.4525 15.932 18.4254 15.8912 18.4254C15.8437 18.4254 15.6805 18.3712 15.531 18.2967C15.3815 18.2289 15.0756 18.1137 14.8513 18.0324C14.627 17.9578 14.2124 17.8358 13.9337 17.7545C13.6551 17.6732 13.3356 17.5851 13.2201 17.5512C13.1045 17.5174 12.8462 17.4496 12.6423 17.4089C12.4384 17.3615 12.1937 17.3005 12.0986 17.2734C12.0034 17.2463 11.7927 17.1853 11.6228 17.1379C11.4528 17.0972 11.2014 17.0294 11.0654 16.9956C10.9227 16.9617 10.678 16.9007 10.5217 16.86L10.5215 16.86C10.3584 16.8193 10.141 16.7651 10.0255 16.7381C9.90994 16.7042 9.68564 16.6432 9.51572 16.5957C9.34579 16.5483 9.14868 16.4873 9.07392 16.4602C8.99915 16.4263 8.78845 16.3721 8.59813 16.3247C8.41461 16.2772 8.19711 16.2163 8.12234 16.1892C8.04758 16.1553 7.7893 16.0604 7.54461 15.9791C7.29992 15.8978 7.07562 15.8097 7.03483 15.7758C6.99405 15.7419 6.92608 15.7148 6.8853 15.7148C6.83772 15.7148 6.62022 15.6335 6.40952 15.5386C6.19201 15.4437 5.84537 15.2811 5.64146 15.1862C5.43755 15.0914 5.26083 14.9829 5.25404 14.9558C5.24044 14.9287 5.19966 14.9016 5.16568 14.9016C5.13169 14.9016 4.90739 14.7864 4.6763 14.6441C4.4384 14.5018 4.14613 14.2985 4.01699 14.1901C3.88785 14.0749 3.60918 13.8174 3.40527 13.6141C3.19456 13.4108 2.93628 13.1329 2.82073 13.0042C2.71198 12.8754 2.48088 12.5569 2.31096 12.2926C2.13424 12.0284 1.95072 11.7166 1.89635 11.5947C1.84197 11.4795 1.7808 11.3778 1.75361 11.3778C1.71963 11.3778 1.69924 11.3304 1.69924 11.2762C1.69924 11.2219 1.67205 11.1203 1.63806 11.0593C1.60408 10.9915 1.51572 10.7205 1.44095 10.463L1.42733 10.416C1.35422 10.1642 1.26099 9.843 1.20986 9.68367C1.15548 9.48038 1.1215 8.95858 1.1215 8.12507C1.1215 7.33899 1.14868 6.76976 1.20306 6.60035C1.25064 6.45126 1.35259 6.11244 1.43415 5.85493C1.50892 5.59742 1.69924 5.12306 1.84877 4.80457C1.9983 4.48607 2.14104 4.21501 2.16822 4.19468C2.18862 4.17435 2.25658 4.07948 2.31096 3.97105C2.36534 3.8694 2.43331 3.78809 2.46049 3.78809C2.49448 3.78809 2.51487 3.74743 2.51487 3.70677C2.50807 3.65933 2.82073 3.2934 3.20816 2.90036C3.59558 2.50732 4.13934 2.03296 4.41801 1.85C4.69669 1.66025 5.15888 1.40274 5.43755 1.26721C5.71623 1.13168 6.05608 0.975822 6.18522 0.921609C6.31436 0.867397 6.54545 0.786079 6.69499 0.738643C6.84452 0.697984 7.02804 0.636995 7.1028 0.603112C7.17757 0.569229 7.31351 0.52857 7.40867 0.50824C7.50382 0.494687 7.79609 0.433698 8.05438 0.379486C8.31266 0.325274 8.71368 0.250732 8.93798 0.203296C9.16228 0.162637 9.49533 0.128754 9.68564 0.121978Z" fill="white"/>
<path d="M65.5565 0.203296C65.9303 0.15586 66.4061 0.0948715 66.61 0.0677654C66.8139 0.0406592 67.3985 0.00677654 67.9015 0C68.4044 0 69.1249 0.0271062 69.4987 0.0609889C69.8726 0.101648 70.4231 0.162637 70.7222 0.203296C71.0212 0.243955 71.3883 0.298168 71.5378 0.33205C71.6873 0.359157 71.9796 0.420145 72.1835 0.467581C72.3874 0.515017 72.8292 0.643771 73.1691 0.752196C73.5089 0.867397 74.0255 1.07069 74.3246 1.20622C74.6236 1.34175 75.0654 1.59249 75.3101 1.75512C75.5548 1.91776 75.8267 2.11428 75.9218 2.1956C76.017 2.27014 76.3365 2.57508 76.6355 2.87325C76.9346 3.17142 77.2269 3.47636 77.2812 3.55091C77.3424 3.62545 77.5123 3.8694 77.6619 4.09303C77.8114 4.31666 78.0289 4.68259 78.1444 4.90621C78.26 5.12984 78.4163 5.48222 78.4911 5.68552C78.5727 5.88881 78.6678 6.19376 78.7154 6.36317C78.7562 6.53258 78.8173 6.7291 78.8513 6.80365C78.8785 6.87819 78.9193 7.07471 78.9465 7.24412C78.9669 7.41353 78.9941 7.83368 79.0484 8.80272H78.6746C78.4707 8.80272 77.9405 8.82983 77.5055 8.87049C77.0637 8.90437 75.9422 8.94503 75.0178 8.95181C73.4613 8.97214 73.3186 8.96536 73.2642 8.85016C73.2302 8.78917 73.2031 8.66719 73.2031 8.5791C73.2031 8.49778 73.1691 8.32159 73.1215 8.19284C73.0807 8.06408 73.0263 7.89467 72.9992 7.82013C72.972 7.74558 72.9176 7.60328 72.87 7.49485C72.8292 7.3932 72.7545 7.23057 72.7137 7.12214C72.6661 7.02049 72.6117 6.92562 72.5913 6.90529C72.5709 6.88496 72.5098 6.78332 72.4554 6.67489C72.401 6.56647 72.2311 6.35639 72.0816 6.20053C71.932 6.04467 71.7213 5.84815 71.6058 5.75328C71.4902 5.65841 71.2048 5.489 70.9601 5.3738C70.7154 5.25182 70.3823 5.12306 70.2124 5.0824L70.1635 5.06876C69.9982 5.02267 69.7859 4.96344 69.6686 4.92654C69.5395 4.88588 68.8054 4.852 68.0374 4.852C67.1742 4.852 66.5013 4.87911 66.2702 4.93332C66.0663 4.98076 65.7264 5.06207 65.5225 5.12306C65.3186 5.17728 64.9176 5.33314 64.6389 5.46867C64.3602 5.6042 63.9796 5.85493 63.7893 6.03112C63.6058 6.20731 63.3883 6.48515 63.3067 6.64101C63.2252 6.80365 63.13 7.0476 63.0892 7.17635C63.0416 7.30511 63.0077 7.54906 63.0077 7.71848C63.0077 7.88789 63.0552 8.15895 63.1164 8.32837C63.1776 8.49778 63.2727 8.72141 63.3339 8.83661C63.3883 8.95181 63.565 9.16188 63.7145 9.31096C63.8709 9.46005 64.0884 9.64301 64.1971 9.71756C64.3059 9.7921 64.5981 9.94796 64.8428 10.0699C65.0875 10.1919 65.3254 10.2936 65.373 10.2936C65.4138 10.2936 65.5089 10.3207 65.5769 10.3546C65.6321 10.3851 65.7425 10.4322 65.8335 10.471L65.8624 10.4833C65.9575 10.5172 66.1274 10.5782 66.2362 10.6188C66.3517 10.6527 66.7596 10.7815 67.1538 10.8967C67.548 11.0187 67.9898 11.1474 68.1393 11.1813C68.2889 11.2219 68.5336 11.2829 68.6831 11.3236C68.8326 11.3575 69.0637 11.4117 69.1929 11.4456C69.322 11.4795 69.5531 11.5337 69.7026 11.5743C69.8522 11.615 70.1716 11.6963 70.4163 11.7505C70.661 11.8115 70.9669 11.886 71.096 11.9199C71.2252 11.947 71.4698 12.0216 71.6398 12.0826C71.8097 12.1368 72 12.191 72.068 12.191C72.1292 12.191 72.2379 12.2181 72.3059 12.252C72.367 12.2859 72.6389 12.374 72.8972 12.4553C73.1555 12.5366 73.4342 12.6315 73.5089 12.6654C73.5837 12.6925 73.7536 12.7534 73.8828 12.8009C74.0119 12.8483 74.1818 12.9093 74.2566 12.9364C74.3314 12.9635 74.5149 13.0448 74.6644 13.1058C74.8139 13.1736 75.1198 13.3091 75.3441 13.4175C75.5684 13.526 75.8403 13.6683 75.9558 13.7293C76.0646 13.797 76.1937 13.8919 76.2413 13.9326C76.2889 13.98 76.3636 14.0207 76.3976 14.0207C76.4316 14.0207 76.5064 14.0613 76.554 14.1088C76.5947 14.1562 76.7443 14.2714 76.8734 14.3595C77.0025 14.4476 77.3696 14.7864 77.689 15.1049C78.0085 15.4302 78.4095 15.9113 78.593 16.1756C78.7698 16.4467 78.9125 16.6906 78.9125 16.7313C78.9125 16.7719 78.9329 16.799 78.9669 16.799C78.9941 16.799 79.0552 16.9007 79.1028 17.0159C79.1572 17.1379 79.2523 17.3615 79.3203 17.5106C79.3883 17.6597 79.463 17.8562 79.4902 17.9511C79.5106 18.0459 79.5718 18.2695 79.6194 18.4593C79.6738 18.6423 79.7485 19.0082 79.7893 19.2725C79.8301 19.5368 79.8913 19.9434 79.932 20.1873C79.966 20.4313 80 20.8108 80 21.0344C80 21.258 79.966 21.6375 79.9252 21.8814C79.8913 22.1254 79.8233 22.4913 79.7893 22.6946C79.7485 22.8979 79.6873 23.1893 79.6466 23.3384C79.6058 23.4875 79.531 23.7314 79.4902 23.8805C79.4427 24.0296 79.2795 24.4091 79.1232 24.7276C78.9737 25.0461 78.7902 25.3917 78.729 25.5069C78.661 25.6153 78.5658 25.7441 78.5251 25.7915C78.4775 25.8389 78.4367 25.9067 78.4367 25.9474C78.4367 25.988 78.3959 26.0558 78.3551 26.0965C78.3076 26.1439 78.1784 26.3065 78.0629 26.4556C77.9541 26.6047 77.6619 26.9232 77.4172 27.1604C77.1725 27.3975 76.7986 27.7228 76.5879 27.8855C76.3704 28.0481 76.1801 28.1836 76.1597 28.1836C76.1393 28.1836 75.9966 28.2717 75.8403 28.3734C75.6771 28.4818 75.3441 28.6648 75.0926 28.78C74.8343 28.9019 74.61 28.9968 74.5828 28.9968C74.5489 28.9968 74.4197 29.0442 74.2906 29.112C74.1614 29.173 73.9507 29.2475 73.8352 29.2814C73.7128 29.3085 73.4953 29.3695 73.3594 29.4102C73.2167 29.4508 72.9788 29.5118 72.8292 29.5457C72.6797 29.5796 72.3263 29.6541 72.0476 29.7016C71.7689 29.749 71.2931 29.8235 70.9941 29.8642C70.695 29.9116 69.8862 29.9591 69.1929 29.9862C68.452 30.0133 67.5208 29.9997 66.9159 29.9523C66.3585 29.9116 65.5565 29.8168 65.1487 29.7422C64.7409 29.6745 64.2923 29.5931 64.1631 29.566C64.034 29.5457 63.5718 29.4034 63.1436 29.2611C62.7154 29.1188 62.0561 28.8477 61.6822 28.658C61.3084 28.4615 60.9958 28.2785 60.989 28.2446C60.9754 28.2107 60.9278 28.1836 60.887 28.1836C60.8394 28.1836 60.6287 28.0481 60.4248 27.8922C60.2209 27.7364 59.9014 27.4721 59.7111 27.3027C59.5276 27.1333 59.3169 26.93 59.2353 26.8419C59.1606 26.7538 58.9839 26.5573 58.8411 26.4014C58.7052 26.2455 58.5896 26.1032 58.5896 26.0829C58.5896 26.0626 58.5285 25.9745 58.4469 25.8796C58.3721 25.7847 58.209 25.5408 58.0867 25.3375C57.9643 25.1342 57.7128 24.6463 57.5293 24.2532C57.339 23.8602 57.1215 23.3113 57.0331 23.0335C56.9516 22.7556 56.8564 22.4303 56.8292 22.3219C56.7952 22.2135 56.7409 21.9966 56.7001 21.8476C56.6593 21.6985 56.5981 21.4071 56.5574 21.2038C56.5166 21.0005 56.4758 20.6888 56.4486 20.2076L56.8904 20.1331C57.1351 20.0857 57.5769 20.0382 57.876 20.0179C58.175 19.9908 58.6916 19.9434 59.0314 19.9095L59.0317 19.9094C59.3716 19.8756 59.9831 19.8146 60.3908 19.7807C60.7986 19.7468 61.3356 19.6994 62.0221 19.6249L62.2124 20.3635C62.3144 20.7701 62.4503 21.2106 62.5047 21.3393C62.5658 21.4681 62.7358 21.834 62.8921 22.1525C63.0416 22.471 63.1844 22.7421 63.2048 22.7624C63.2252 22.7827 63.3271 22.9047 63.4223 23.0335C63.5174 23.1622 63.7213 23.3926 63.8641 23.5417C64.0068 23.6908 64.2379 23.8941 64.367 23.9822C64.4962 24.0703 64.6185 24.1651 64.6389 24.1855C64.6593 24.2058 64.8836 24.3278 65.1487 24.4565C65.4138 24.5785 65.6856 24.7073 65.7604 24.7411C65.8352 24.7682 66.1274 24.8496 66.4061 24.9173C66.6848 24.9919 67.2693 25.0867 67.6975 25.1342C68.3161 25.2019 68.6423 25.2019 69.2608 25.141C69.689 25.0935 70.1308 25.0325 70.2464 24.9987C70.3619 24.958 70.5183 24.9309 70.6066 24.9309C70.6882 24.9309 70.8377 24.897 70.9465 24.8563C71.0484 24.8157 71.1912 24.7547 71.2659 24.7276C71.3407 24.7005 71.5106 24.6327 71.6398 24.5853C71.7689 24.5378 72.0952 24.3549 72.3534 24.1855C72.6117 24.0093 72.938 23.745 73.0671 23.5959C73.1963 23.4468 73.373 23.2503 73.4614 23.1487C73.5429 23.047 73.6924 22.8031 73.7944 22.6065C73.8963 22.4168 74.0051 22.1322 74.0459 21.9831C74.0799 21.834 74.1071 21.4545 74.1071 21.136C74.1071 20.8175 74.0867 20.4448 74.0595 20.3025C74.0391 20.167 73.9847 20.0518 73.9507 20.0518C73.9167 20.0518 73.8828 20.0043 73.8828 19.9501C73.8828 19.8959 73.7944 19.7197 73.6856 19.5571C73.5769 19.4012 73.3866 19.1776 73.2574 19.0692C73.1283 18.9608 72.938 18.8117 72.8292 18.7439C72.7137 18.6761 72.5709 18.6084 72.5098 18.588C72.4418 18.5745 72.3874 18.5338 72.3874 18.4932C72.3874 18.4525 72.3263 18.4254 72.2515 18.4254C72.1767 18.4254 72.1156 18.3983 72.1156 18.3576C72.1156 18.317 72.0476 18.2763 71.966 18.2628C71.8777 18.2492 71.5922 18.1611 71.3339 18.0663C71.0756 17.9782 70.627 17.8358 70.3484 17.7545C70.0697 17.6732 69.7502 17.5851 69.6347 17.5512C69.5191 17.5174 69.2608 17.4496 69.0569 17.4089C68.853 17.3615 68.6219 17.3005 68.5472 17.2734C68.4724 17.2395 68.3297 17.1989 68.2277 17.1785C68.1189 17.1582 67.9558 17.1175 67.8539 17.0972C67.7451 17.0769 67.6024 17.0362 67.5276 17.0023C67.4529 16.9752 67.1946 16.9007 66.9499 16.8465C66.7052 16.7855 66.2634 16.6771 65.9643 16.5957C65.6653 16.5144 65.3254 16.4263 65.2167 16.3924C65.1079 16.3586 64.938 16.3111 64.8428 16.2908C64.7477 16.2637 64.6117 16.223 64.537 16.1892C64.4622 16.1553 64.2039 16.0604 63.9592 15.9791C63.7145 15.8978 63.4834 15.8097 63.4495 15.7758C63.4155 15.7419 63.3407 15.7148 63.2999 15.7148C63.2523 15.7148 62.9465 15.5928 62.6202 15.437C62.2872 15.2879 61.9609 15.132 61.8862 15.0914C61.8114 15.0507 61.5803 14.9219 61.3764 14.8135C61.1725 14.6983 60.989 14.5899 60.9686 14.5628C60.9482 14.5357 60.887 14.4882 60.8258 14.4544C60.7647 14.4205 60.6015 14.2985 60.4588 14.1901C60.3161 14.0816 60.0714 13.8648 59.915 13.7157C59.7587 13.5666 59.48 13.2617 59.2829 13.0381C59.0926 12.8144 58.9295 12.6111 58.9295 12.5773C58.9295 12.5502 58.8683 12.4621 58.7935 12.374C58.7188 12.2926 58.6576 12.1842 58.6576 12.1368C58.6576 12.0961 58.6372 12.0555 58.61 12.0555C58.576 12.0555 58.4537 11.8522 58.3246 11.6014C58.2022 11.3439 58.0731 11.0796 58.0391 11.0051C58.0119 10.9306 57.9303 10.6866 57.8556 10.463C57.7808 10.2393 57.6788 9.85986 57.6313 9.61591C57.5837 9.36518 57.5429 8.72141 57.5429 8.12507C57.5429 7.54229 57.5837 6.87819 57.6313 6.63423C57.6788 6.39028 57.74 6.13277 57.774 6.05823C57.8012 5.98368 57.8624 5.81427 57.9099 5.68552C57.9575 5.55676 58.0391 5.34669 58.0867 5.22471C58.141 5.10951 58.2362 4.89266 58.2974 4.75035C58.3585 4.61482 58.4265 4.48607 58.4469 4.46574C58.4741 4.44541 58.5285 4.35731 58.5828 4.26244C58.6372 4.16757 58.712 4.03204 58.7528 3.9575C58.7935 3.88296 58.8411 3.80841 58.8615 3.78809C58.8819 3.76776 58.9839 3.63223 59.0994 3.48314C59.2082 3.33406 59.548 2.96812 59.8471 2.67673C60.1461 2.37857 60.6015 1.99908 60.8666 1.82967C61.1317 1.65348 61.6007 1.38919 61.9201 1.23333C62.2396 1.08425 62.7698 0.867397 63.1096 0.752196C63.4495 0.643771 63.8777 0.515017 64.0612 0.474358C64.2515 0.426922 64.5098 0.365933 64.6389 0.33205C64.7681 0.304944 65.1827 0.243955 65.5565 0.203296Z" fill="white"/>
<path d="M28.6491 29.5051L28.6287 15.0236L28.6151 0.535347H34.2566L34.4061 0.786079C34.4945 0.928386 34.6168 1.13168 34.6848 1.24688C34.746 1.35531 34.8547 1.55183 34.9227 1.67381C34.9839 1.79578 35.0586 1.89065 35.0858 1.89065C35.1198 1.89065 35.1402 1.91776 35.1402 1.95842C35.1402 1.9923 35.2625 2.20915 35.4121 2.43278C35.5616 2.6564 35.6839 2.85292 35.6839 2.87325C35.6839 2.89358 35.7723 3.04267 35.8879 3.21208C35.9966 3.38149 36.0918 3.53058 36.0918 3.55091C36.0918 3.57017 36.2138 3.76587 36.3596 3.99964L36.384 4.03882C36.5472 4.29633 36.7918 4.67581 36.9278 4.88588C37.0705 5.10273 37.1793 5.30603 37.1793 5.34669C37.1793 5.38057 37.2133 5.41445 37.2472 5.41445C37.2812 5.41445 37.3288 5.46867 37.3424 5.52966C37.3628 5.59742 37.4308 5.73973 37.4987 5.85493C37.5667 5.96335 37.6347 6.07178 37.6551 6.09211C37.6754 6.11244 37.8862 6.44449 38.1241 6.83753C38.3619 7.23057 38.593 7.61683 38.6338 7.69815C38.6746 7.78624 38.729 7.85401 38.7562 7.85401C38.7901 7.85401 38.8105 7.88111 38.8105 7.92177C38.8105 7.96243 38.9125 8.15218 39.0416 8.34192C39.164 8.53844 39.4359 8.97214 39.6398 9.31096C39.8437 9.64301 40.0544 9.99539 40.1088 10.0903C40.1631 10.1851 40.2175 10.2732 40.2379 10.2936C40.2583 10.3139 40.3127 10.3952 40.3534 10.4765C40.401 10.5646 40.4826 10.7002 40.5234 10.7815C40.5709 10.8628 40.6661 10.9915 40.7341 11.0661C40.7952 11.1474 40.8496 11.2491 40.8496 11.2897C40.8496 11.3372 40.8836 11.3778 40.9176 11.3778C40.9516 11.3778 40.9992 11.432 41.0127 11.493C41.0331 11.5608 41.1011 11.7099 41.1691 11.8183L41.1692 11.8184C41.2371 11.9268 41.305 12.0351 41.3254 12.0555C41.3458 12.0758 41.4002 12.1639 41.4546 12.2588C41.5089 12.3536 41.5837 12.4892 41.6245 12.5569C41.6653 12.6315 41.7536 12.7534 41.8216 12.828C41.8828 12.9093 41.9371 12.9906 41.9371 13.0177C41.9371 13.0516 42.0391 13.2346 42.1546 13.4243C42.277 13.6208 42.3993 13.797 42.4197 13.8174C42.4401 13.8377 42.5353 13.9868 42.6236 14.1562C42.712 14.3256 42.9363 14.6848 43.113 14.949C43.2897 15.2201 43.4325 15.4573 43.4325 15.4776C43.4325 15.4979 43.5208 15.647 43.6364 15.8164C43.7451 15.9859 43.8403 16.1485 43.8403 16.1892C43.8403 16.2298 43.8607 16.2569 43.8879 16.2569C43.9218 16.2569 44.017 16.3992 44.1122 16.5754C44.2073 16.7584 44.3364 16.9617 44.4044 17.0362C44.4656 17.1108 44.52 17.2124 44.52 17.2531C44.52 17.3005 44.554 17.3412 44.5879 17.3412C44.6219 17.3412 44.6695 17.3954 44.6831 17.4564C44.7035 17.5241 44.7715 17.6732 44.8394 17.7816L44.8396 17.7819C44.9075 17.8902 44.9754 17.9985 44.9958 18.0188C45.0161 18.0391 45.0705 18.1205 45.1113 18.2018C45.1589 18.2899 45.2404 18.4254 45.2812 18.5067C45.3288 18.5948 45.3832 18.6761 45.4036 18.6965C45.424 18.7168 45.5327 18.8794 45.6415 19.0624C45.757 19.2521 45.9065 19.5029 45.9813 19.6316C46.0561 19.7604 46.158 19.8824 46.1988 19.8959C46.2668 19.9095 46.2872 17.9443 46.2872 0.535347H48.938C50.6576 0.535347 51.5888 0.562453 51.5888 0.603112V15.0507C51.5888 26.3811 51.5684 29.4508 51.5004 29.4847C51.4596 29.5118 50.1886 29.5389 48.6797 29.5389C47.1776 29.5389 45.8997 29.5254 45.8454 29.5051C45.791 29.4847 45.7434 29.4373 45.7434 29.4034C45.7434 29.3695 45.5939 29.0985 45.4036 28.8071C45.2201 28.5225 45.0433 28.2514 45.0161 28.2107C44.9822 28.1768 44.921 28.0752 44.8734 27.9939C44.8326 27.9126 44.7511 27.777 44.7035 27.6889C44.6627 27.6076 44.6083 27.5263 44.5879 27.506C44.5675 27.4856 44.5132 27.3975 44.4588 27.3027C44.4044 27.2078 44.2209 26.9029 44.0442 26.625C43.8675 26.3472 43.6839 26.0422 43.6296 25.9474C43.5752 25.8525 43.5208 25.7644 43.5004 25.7441C43.48 25.7237 43.4325 25.6492 43.3917 25.5747C43.3509 25.5001 43.2761 25.3646 43.2218 25.2765L43.2121 25.2597C43.1603 25.1692 43.1042 25.0712 43.0722 25.0393C43.045 24.9987 42.9023 24.775 42.7528 24.5378C42.6032 24.3074 42.4809 24.0906 42.4809 24.0499C42.4809 24.0093 42.4537 23.9754 42.4265 23.9618C42.3993 23.9551 42.2838 23.7992 42.175 23.6162C42.0595 23.4333 41.9235 23.2029 41.8692 23.108C41.808 23.0131 41.6788 22.8031 41.5769 22.6404C41.4749 22.4846 41.3934 22.3422 41.3934 22.3219C41.3934 22.3016 41.3594 22.2474 41.3254 22.1999C41.2846 22.1593 41.1351 21.9289 40.9856 21.6917C40.836 21.4613 40.7137 21.2444 40.7137 21.2038C40.7137 21.1631 40.6797 21.136 40.6457 21.136C40.6117 21.136 40.5641 21.0818 40.5506 21.014C40.5302 20.9531 40.4622 20.804 40.3942 20.6956C40.3263 20.5871 40.2583 20.4787 40.2379 20.4584C40.2175 20.438 40.1631 20.3499 40.1088 20.2551C40.0544 20.1602 39.8641 19.8485 39.6805 19.5571C39.5038 19.2725 39.198 18.7846 39.0076 18.4728C38.8105 18.1679 38.593 17.8087 38.5183 17.68C38.4503 17.5512 38.328 17.3615 38.26 17.2531C38.1852 17.1514 38.1308 17.043 38.1308 17.0023C38.1308 16.9617 38.1105 16.9278 38.0765 16.9142C38.0493 16.9075 37.8658 16.6364 37.6687 16.3044C37.4783 15.9791 37.3152 15.6877 37.3152 15.647C37.3152 15.6064 37.2948 15.5793 37.2608 15.5793C37.2336 15.5793 37.1657 15.4979 37.1113 15.3963C37.0569 15.2879 36.989 15.1794 36.955 15.1388C36.9278 15.0981 36.785 14.8813 36.6355 14.6441C36.486 14.4137 36.3636 14.1968 36.3636 14.1562C36.3636 14.1155 36.3297 14.0884 36.2957 14.0884C36.2617 14.0884 36.2141 14.0342 36.2005 13.9664C36.1801 13.9055 36.1122 13.7564 36.0442 13.6479L36.0441 13.6478C35.9762 13.5394 35.9082 13.4311 35.8879 13.4108C35.8675 13.3904 35.8131 13.3023 35.7587 13.2075C35.7043 13.1126 35.5208 12.8077 35.3441 12.5298C35.1674 12.252 34.9839 11.947 34.9295 11.8522C34.8751 11.7573 34.8139 11.6692 34.7935 11.6489C34.7735 11.6289 34.6291 11.387 34.4631 11.1089L34.4537 11.0932C34.2634 10.7611 34.1138 10.5714 34.0323 10.5646C33.9235 10.5646 33.9167 11.0593 33.9235 29.5051H28.6491Z" fill="white"/>
</svg>
