<svg width="52" height="52" viewBox="0 0 52 52" fill="none" xmlns="http://www.w3.org/2000/svg">
<path d="M45.5 45.4999L36.0901 36.0901M36.0901 36.0901C37.6997 34.4805 38.9765 32.5696 39.8476 30.4666C40.7187 28.3636 41.1671 26.1096 41.1671 23.8332C41.1671 21.5569 40.7187 19.3029 39.8476 17.1999C38.9765 15.0969 37.6997 13.186 36.0901 11.5764C34.4805 9.96682 32.5697 8.69003 30.4666 7.81892C28.3636 6.94782 26.1096 6.49947 23.8333 6.49947C21.557 6.49947 19.303 6.94782 17.1999 7.81892C15.0969 8.69003 13.186 9.96682 11.5765 11.5764C8.32574 14.8271 6.49951 19.236 6.49951 23.8332C6.49951 28.4305 8.32574 32.8394 11.5765 36.0901C14.8272 39.3408 19.2361 41.167 23.8333 41.167C28.4305 41.167 32.8394 39.3408 36.0901 36.0901ZM23.8333 17.3332V30.3332M17.3333 23.8332H30.3333" stroke="white" stroke-width="4.33333" stroke-linecap="round" stroke-linejoin="round"/>
</svg>
