<svg width="1822" height="244" viewBox="0 0 1822 244" fill="none" xmlns="http://www.w3.org/2000/svg">
<path d="M149.552 195.418C109.918 198.973 77.0376 200.75 50.9111 200.75C33.4934 200.75 20.6967 196.662 12.5211 188.486C4.34541 180.311 0.257585 167.514 0.257585 150.096V64.7853C0.257585 46.1235 4.43428 32.6159 12.7877 24.2625C21.3188 15.7314 34.9152 11.4658 53.5771 11.4658H149.552V48.7895H64.241C53.5771 48.7895 48.2451 54.1214 48.2451 64.7853V150.096C48.2451 154.184 49.4004 157.472 51.7109 159.961C54.1991 162.271 57.3094 163.426 61.0418 163.426C64.7742 163.426 68.862 163.426 73.3053 163.426C77.7486 163.249 82.3696 163.071 87.1683 162.893C91.9671 162.715 96.7658 162.538 101.565 162.36C106.541 162.182 112.851 161.827 120.493 161.294C128.313 160.76 138 160.138 149.552 159.427V195.418ZM276.217 174.09H241.559L214.9 126.103V198.084H168.245V56.7874H217.566L258.888 131.435L300.211 56.7874H349.531V198.084H302.877V126.103L276.217 174.09ZM432.249 163.426C441.669 163.426 452.333 161.649 464.241 158.094V142.099H425.585C422.919 142.099 420.697 142.987 418.92 144.765C417.142 146.542 416.254 148.763 416.254 151.429V154.095C416.254 156.761 417.142 158.983 418.92 160.76C420.697 162.538 422.919 163.426 425.585 163.426H432.249ZM382.929 59.4533C415.454 55.8987 444.78 54.1214 470.906 54.1214C482.992 54.1214 492.678 57.7649 499.965 65.0519C507.252 72.3389 510.896 82.0253 510.896 94.111V198.084H469.573L466.907 184.754C458.554 190.264 449.934 194.352 441.047 197.018C432.338 199.506 424.963 200.75 418.92 200.75H409.589C397.503 200.75 387.817 197.106 380.53 189.819C373.243 182.532 369.599 172.846 369.599 160.76V148.763C369.599 136.678 373.243 126.991 380.53 119.704C387.817 112.417 397.503 108.774 409.589 108.774H464.241V98.11C464.241 95.444 463.353 93.2223 461.575 91.445C459.798 89.6677 457.576 88.7791 454.91 88.7791C443.358 88.7791 430.561 89.3122 416.52 90.3786C402.657 91.445 391.46 92.2448 382.929 92.778V59.4533ZM700.107 198.084H652.119V122.104H585.47V198.084H537.483V11.4658H585.47V84.7801H652.119V11.4658H700.107V198.084ZM784.21 87.4461C777.101 87.4461 773.546 91.0007 773.546 98.11V112.773H818.868V98.11C818.868 91.0007 815.313 87.4461 808.204 87.4461H784.21ZM860.19 195.418C825.888 198.973 794.785 200.75 766.881 200.75C754.796 200.75 745.109 197.106 737.822 189.819C730.535 182.532 726.892 172.846 726.892 160.76V96.777C726.892 83.4471 730.624 73.0498 738.089 65.5851C745.731 57.9426 756.217 54.1214 769.547 54.1214H822.867C836.197 54.1214 846.594 57.9426 854.059 65.5851C861.701 73.0498 865.522 83.4471 865.522 96.777V146.097H773.546V156.761C773.546 159.427 774.435 161.649 776.212 163.426C777.99 165.204 780.211 166.092 782.877 166.092C800.473 166.092 826.244 164.759 860.19 162.093V195.418ZM990.719 198.084H889.412V56.7874H982.721C994.629 56.7874 1004.23 60.342 1011.51 67.4513C1018.98 74.3828 1022.71 82.203 1022.71 90.9118C1022.71 99.6207 1020.84 106.73 1017.11 112.24C1013.38 117.749 1008.14 121.482 1001.38 123.437C1009.38 124.859 1016.22 128.769 1021.91 135.167C1027.78 141.565 1030.71 150.096 1030.71 160.76C1030.71 171.424 1026.98 180.311 1019.51 187.42C1012.22 194.529 1002.63 198.084 990.719 198.084ZM984.054 152.762C984.054 150.096 983.165 147.875 981.388 146.097C979.611 144.32 977.389 143.432 974.723 143.432H936.067V166.092H974.723C977.389 166.092 979.611 165.204 981.388 163.426C983.165 161.649 984.054 159.427 984.054 156.761V152.762ZM976.056 98.11C976.056 95.444 975.167 93.2223 973.39 91.445C971.613 89.6677 969.391 88.7791 966.725 88.7791H936.067V112.773H966.725C969.391 112.773 971.613 111.884 973.39 110.107C975.167 108.33 976.056 106.108 976.056 103.442V98.11ZM1195.89 195.418C1156.26 198.973 1123.38 200.75 1097.25 200.75C1079.84 200.75 1067.04 196.662 1058.86 188.486C1050.69 180.311 1046.6 167.514 1046.6 150.096V64.7853C1046.6 46.1235 1050.78 32.6159 1059.13 24.2625C1067.66 15.7314 1081.26 11.4658 1099.92 11.4658H1195.89V48.7895H1110.58C1099.92 48.7895 1094.59 54.1214 1094.59 64.7853V150.096C1094.59 154.184 1095.74 157.472 1098.05 159.961C1100.54 162.271 1103.65 163.426 1107.38 163.426C1111.12 163.426 1115.2 163.426 1119.65 163.426C1124.09 163.249 1128.71 163.071 1133.51 162.893C1138.31 162.715 1143.11 162.538 1147.91 162.36C1152.88 162.182 1159.19 161.827 1166.84 161.294C1174.66 160.76 1184.34 160.138 1195.89 159.427V195.418ZM1283.89 92.778V198.084H1237.24V92.778H1193.25V56.7874H1327.88V92.778H1283.89ZM1422.63 92.778C1413.21 92.778 1402.54 94.5553 1390.64 98.11V162.093H1430.63C1437.73 162.093 1441.29 158.539 1441.29 151.429V102.109C1441.29 99.4429 1440.4 97.2213 1438.62 95.444C1436.85 93.6667 1434.62 92.778 1431.96 92.778H1422.63ZM1390.64 198.084V243.406H1343.98V56.7874H1385.3L1387.97 70.1172C1396.32 64.6076 1404.85 60.6086 1413.56 58.1203C1422.45 55.4544 1429.91 54.1214 1435.96 54.1214H1447.95C1460.04 54.1214 1469.73 57.7649 1477.01 65.0519C1484.3 72.3389 1487.94 82.0253 1487.94 94.111V155.428C1487.94 168.758 1484.12 179.244 1476.48 186.887C1469.02 194.352 1458.62 198.084 1445.29 198.084H1390.64ZM1655.87 158.094C1655.87 171.424 1652.05 181.91 1644.41 189.553C1636.94 197.018 1626.54 200.75 1613.21 200.75H1551.9C1538.57 200.75 1528.08 197.018 1520.44 189.553C1512.97 181.91 1509.24 171.424 1509.24 158.094V96.777C1509.24 83.4471 1512.97 73.0498 1520.44 65.5851C1528.08 57.9426 1538.57 54.1214 1551.9 54.1214H1613.21C1626.54 54.1214 1636.94 57.9426 1644.41 65.5851C1652.05 73.0498 1655.87 83.4471 1655.87 96.777V158.094ZM1609.21 100.776C1609.21 93.6667 1605.66 90.112 1598.55 90.112H1566.56C1559.45 90.112 1555.9 93.6667 1555.9 100.776V154.095C1555.9 161.205 1559.45 164.759 1566.56 164.759H1598.55C1605.66 164.759 1609.21 161.205 1609.21 154.095V100.776ZM1735.82 43.4575C1712.71 43.4575 1701.16 31.9049 1701.16 8.79983V0.801919H1735.82V7.46685C1735.82 10.1328 1736.71 12.3545 1738.48 14.1318C1740.26 15.9091 1742.48 16.7978 1745.15 16.7978H1753.15C1755.81 16.7978 1758.03 15.9091 1759.81 14.1318C1761.59 12.3545 1762.48 10.1328 1762.48 7.46685V0.801919H1797.13V8.79983C1797.13 31.9049 1785.58 43.4575 1762.48 43.4575H1735.82ZM1771.81 56.7874H1821.13V198.084H1774.47V120.771L1729.15 198.084H1679.83V56.7874H1726.49V134.101L1771.81 56.7874Z" fill="#1F2A46"/>
</svg>
