<svg width="295" height="250" viewBox="0 0 295 250" fill="none" xmlns="http://www.w3.org/2000/svg">
<path d="M56.0206 68.0163C41.3966 69.3279 29.2646 69.9837 19.6246 69.9837C13.1979 69.9837 8.47623 68.4754 5.45962 65.4588C2.44301 62.4422 0.934707 57.7205 0.934707 51.2938V19.8162C0.934707 12.9304 2.4758 7.94647 5.55799 4.86428C8.70575 1.71652 13.7225 0.142633 20.6082 0.142633H56.0206V13.9141H24.5429C20.6082 13.9141 18.6409 15.8815 18.6409 19.8162V51.2938C18.6409 52.8021 19.0671 54.0153 19.9197 54.9334C20.8378 55.7859 21.9854 56.2122 23.3625 56.2122C24.7397 56.2122 26.248 56.2122 27.8874 56.2122C29.5269 56.1466 31.2319 56.081 33.0026 56.0155C34.7732 55.9499 36.5438 55.8843 38.3144 55.8187C40.1506 55.7532 42.4787 55.622 45.2985 55.4253C48.184 55.2285 51.758 54.999 56.0206 54.7367V68.0163ZM104.724 60.1469H91.9363L82.0996 42.4407V69H64.8852V16.8651H83.0832L98.3302 44.4081L113.577 16.8651H131.775V69H114.561V42.4407L104.724 60.1469ZM164.263 56.2122C167.739 56.2122 171.674 55.5564 176.068 54.2449V48.3428H161.804C160.821 48.3428 160.001 48.6707 159.345 49.3265C158.689 49.9823 158.361 50.802 158.361 51.7857V52.7693C158.361 53.753 158.689 54.5727 159.345 55.2285C160.001 55.8843 160.821 56.2122 161.804 56.2122H164.263ZM146.065 17.8488C158.066 16.5372 168.887 15.8815 178.527 15.8815C182.986 15.8815 186.56 17.2258 189.249 19.9145C191.938 22.6033 193.282 26.1773 193.282 30.6366V69H178.035L177.051 64.0816C173.969 66.1145 170.788 67.6229 167.51 68.6065C164.296 69.5246 161.575 69.9837 159.345 69.9837H155.902C151.443 69.9837 147.869 68.6393 145.18 65.9506C142.491 63.2619 141.147 59.6879 141.147 55.2285V50.802C141.147 46.3426 142.491 42.7686 145.18 40.0799C147.869 37.3912 151.443 36.0468 155.902 36.0468H176.068V32.1121C176.068 31.1284 175.74 30.3087 175.084 29.6529C174.428 28.9971 173.608 28.6693 172.625 28.6693C168.362 28.6693 163.64 28.866 158.46 29.2595C153.345 29.6529 149.213 29.948 146.065 30.1448V17.8488ZM62.9063 151H45.2002V122.965H20.6082V151H2.90206V82.1426H20.6082V109.194H45.2002V82.1426H62.9063V151ZM95.9056 110.177C93.2825 110.177 91.9709 111.489 91.9709 114.112V119.522H108.693V114.112C108.693 111.489 107.382 110.177 104.759 110.177H95.9056ZM123.94 150.016C111.284 151.328 99.8075 151.984 89.5117 151.984C85.0524 151.984 81.4784 150.639 78.7896 147.951C76.1009 145.262 74.7566 141.688 74.7566 137.229V113.62C74.7566 108.702 76.1337 104.866 78.888 102.111C81.7079 99.2914 85.577 97.8815 90.4954 97.8815H110.169C115.087 97.8815 118.924 99.2914 121.678 102.111C124.498 104.866 125.908 108.702 125.908 113.62V131.818H91.9709V135.753C91.9709 136.737 92.2988 137.556 92.9546 138.212C93.6104 138.868 94.4301 139.196 95.4138 139.196C101.906 139.196 111.415 138.704 123.94 137.72V150.016ZM174.069 151H136.69V98.8651H171.118C175.512 98.8651 179.053 100.177 181.742 102.8C184.496 105.357 185.874 108.243 185.874 111.456C185.874 114.67 185.185 117.293 183.808 119.326C182.431 121.359 180.496 122.736 178.004 123.457C180.955 123.982 183.48 125.424 185.578 127.785C187.743 130.146 188.825 133.294 188.825 137.229C188.825 141.163 187.447 144.442 184.693 147.065C182.004 149.688 178.463 151 174.069 151ZM171.61 134.277C171.61 133.294 171.282 132.474 170.627 131.818C169.971 131.163 169.151 130.835 168.167 130.835H153.904V139.196H168.167C169.151 139.196 169.971 138.868 170.627 138.212C171.282 137.556 171.61 136.737 171.61 135.753V134.277ZM168.659 114.112C168.659 113.128 168.331 112.309 167.676 111.653C167.02 110.997 166.2 110.669 165.216 110.669H153.904V119.522H165.216C166.2 119.522 167.02 119.194 167.676 118.539C168.331 117.883 168.659 117.063 168.659 116.079V114.112ZM56.0206 232.016C41.3966 233.328 29.2646 233.984 19.6246 233.984C13.1979 233.984 8.47623 232.475 5.45962 229.459C2.44301 226.442 0.934707 221.721 0.934707 215.294V183.816C0.934707 176.93 2.4758 171.946 5.55799 168.864C8.70575 165.717 13.7225 164.143 20.6082 164.143H56.0206V177.914H24.5429C20.6082 177.914 18.6409 179.881 18.6409 183.816V215.294C18.6409 216.802 19.0671 218.015 19.9197 218.933C20.8378 219.786 21.9854 220.212 23.3625 220.212C24.7397 220.212 26.248 220.212 27.8874 220.212C29.5269 220.147 31.2319 220.081 33.0026 220.015C34.7732 219.95 36.5438 219.884 38.3144 219.819C40.1506 219.753 42.4787 219.622 45.2985 219.425C48.184 219.229 51.758 218.999 56.0206 218.737V232.016ZM90.457 194.145V233H73.2426V194.145H57.012V180.865H106.688V194.145H90.457ZM143.614 194.145C140.138 194.145 136.204 194.801 131.81 196.112V219.72H146.565C149.188 219.72 150.5 218.409 150.5 215.786V197.588C150.5 196.604 150.172 195.784 149.516 195.128C148.86 194.473 148.04 194.145 147.057 194.145H143.614ZM131.81 233V249.723H114.595V180.865H129.842L130.826 185.784C133.908 183.751 137.056 182.275 140.269 181.357C143.548 180.373 146.303 179.881 148.532 179.881H152.959C157.418 179.881 160.992 181.226 163.681 183.915C166.37 186.603 167.714 190.177 167.714 194.637V217.261C167.714 222.18 166.304 226.049 163.484 228.869C160.73 231.623 156.894 233 151.975 233H131.81ZM231.641 218.245C231.641 223.163 230.232 227.032 227.412 229.852C224.657 232.607 220.821 233.984 215.903 233.984H193.278C188.36 233.984 184.491 232.607 181.671 229.852C178.916 227.032 177.539 223.163 177.539 218.245V195.62C177.539 190.702 178.916 186.866 181.671 184.111C184.491 181.291 188.36 179.881 193.278 179.881H215.903C220.821 179.881 224.657 181.291 227.412 184.111C230.232 186.866 231.641 190.702 231.641 195.62V218.245ZM214.427 197.096C214.427 194.473 213.116 193.161 210.492 193.161H198.688C196.065 193.161 194.754 194.473 194.754 197.096V216.769C194.754 219.392 196.065 220.704 198.688 220.704H210.492C213.116 220.704 214.427 219.392 214.427 216.769V197.096ZM263.108 175.947C254.582 175.947 250.32 171.684 250.32 163.159V160.208H263.108V162.667C263.108 163.651 263.435 164.471 264.091 165.126C264.747 165.782 265.567 166.11 266.55 166.11H269.501C270.485 166.11 271.305 165.782 271.961 165.126C272.616 164.471 272.944 163.651 272.944 162.667V160.208H285.732V163.159C285.732 171.684 281.47 175.947 272.944 175.947H263.108ZM276.387 180.865H294.585V233H277.371V204.473L260.648 233H242.45V180.865H259.665V209.392L276.387 180.865Z" fill="#1F2A46"/>
</svg>
