<svg width="180" height="180" viewBox="0 0 180 180" fill="none" xmlns="http://www.w3.org/2000/svg">
<path fill-rule="evenodd" clip-rule="evenodd" d="M124.571 49.5375L124.234 49.275C123.585 44.3475 121.226 39.2138 117.544 34.8863C111.563 27.855 101.813 22.5 88.7625 22.5C75.9 22.5 66.8363 28.365 61.4888 35.6363C58.9944 39 57.2119 42.8368 56.25 46.9125C56.0749 47.6757 55.9348 48.4465 55.83 49.2225L55.425 49.5337C51.21 52.8 48.1163 56.76 48.8513 61.3012C49.5563 65.6887 53.5238 68.3587 57.2138 69.99C58.1513 70.4062 59.1638 70.7962 60.24 71.16C59.6978 75.3873 60.0626 79.6816 61.3099 83.7569C62.5573 87.8322 64.6587 91.5949 67.4741 94.7945C70.2895 97.9941 73.7544 100.557 77.6379 102.313C81.5213 104.068 85.7344 104.976 89.9963 104.976C94.2582 104.976 98.4712 104.068 102.355 102.313C106.238 100.557 109.703 97.9941 112.518 94.7945C115.334 91.5949 117.435 87.8322 118.683 83.7569C119.93 79.6816 120.295 75.3873 119.753 71.16C120.829 70.7962 121.841 70.41 122.779 69.99C126.469 68.3587 130.433 65.6887 131.141 61.3012C131.876 56.76 128.783 52.8 124.568 49.5337L124.571 49.5375ZM63.5438 55.02C63.0563 53.6175 62.9288 51.3638 63.5625 48.5775C64.185 45.8587 65.475 42.8775 67.5 40.1175V50.625C67.5 51.6196 67.8951 52.5734 68.5984 53.2766C69.3016 53.9799 70.2555 54.375 71.25 54.375C72.2446 54.375 73.1984 53.9799 73.9017 53.2766C74.6049 52.5734 75 51.6196 75 50.625V33.4125C78.0863 31.6575 81.8175 30.4312 86.25 30.0937V43.125C86.25 44.1196 86.6451 45.0734 87.3484 45.7766C88.0516 46.4799 89.0055 46.875 90 46.875C90.9946 46.875 91.9484 46.4799 92.6517 45.7766C93.3549 45.0734 93.75 44.1196 93.75 43.125V30.3262C97.7099 30.8254 101.533 32.0996 105 34.0762V50.625C105 51.6196 105.395 52.5734 106.098 53.2766C106.802 53.9799 107.755 54.375 108.75 54.375C109.745 54.375 110.698 53.9799 111.402 53.2766C112.105 52.5734 112.5 51.6196 112.5 50.625V40.5675C116.644 45.8775 117.615 51.6075 116.449 55.0462C116.16 55.8973 116.186 56.8239 116.523 57.6572C116.86 58.4904 117.485 59.175 118.284 59.5862C119.083 59.9974 120.004 60.1079 120.877 59.8975C121.751 59.6871 122.521 59.1699 123.045 58.44C123.784 59.4712 123.758 60.0187 123.743 60.105C123.694 60.405 123.12 61.6425 119.749 63.135C118.286 63.78 116.546 64.3612 114.593 64.875L114.503 64.8975C112.384 65.445 110.025 65.91 107.501 66.2925C102.821 66.9674 98.103 67.3557 93.375 67.455C90.1248 67.5362 86.8727 67.5012 83.625 67.35C79.8895 67.1828 76.1648 66.8273 72.465 66.285C70.1199 65.9444 67.7942 65.4812 65.4975 64.8975L65.4075 64.875C63.6456 64.4319 61.9214 63.8501 60.2513 63.135C56.88 61.6425 56.3063 60.405 56.2575 60.105C56.2425 60.0187 56.2163 59.4712 56.955 58.44C57.4804 59.1732 58.2524 59.6924 59.1296 59.9026C60.0068 60.1127 60.9303 59.9996 61.7309 59.5841C62.5314 59.1686 63.1554 58.4784 63.4884 57.6401C63.8213 56.8018 63.841 55.8716 63.5438 55.02ZM67.5825 73.0537C68.8275 73.2975 70.1175 73.5187 71.4375 73.7175C75.4425 74.3175 79.755 74.7 84.1425 74.88C88.0534 75.0407 91.9692 75.0407 95.88 74.88C100.245 74.7 104.543 74.3175 108.529 73.7175C109.83 73.528 111.127 73.3067 112.418 73.0537C112.684 76.1593 112.303 79.2864 111.297 82.2368C110.292 85.1872 108.684 87.8965 106.577 90.1929C104.469 92.4893 101.907 94.3227 99.0535 95.5769C96.2 96.8311 93.117 97.4788 90 97.4788C86.883 97.4788 83.8 96.8311 80.9465 95.5769C78.0929 94.3227 75.5311 92.4893 73.4235 90.1929C71.3158 87.8965 69.7083 85.1872 68.7028 82.2368C67.6973 79.2864 67.3158 76.1593 67.5825 73.0537Z" fill="#E70D2F"/>
<path fill-rule="evenodd" clip-rule="evenodd" d="M108.75 106.837C111.217 107.269 113.73 107.771 116.25 108.345C136.661 113.006 157.5 122.325 157.5 135V157.5H22.5V135C22.5 122.325 43.3388 113.006 63.75 108.345C66.2367 107.778 68.7375 107.276 71.25 106.837V123.75H108.75V106.837ZM56.25 118.087C58.7025 117.337 61.2188 116.659 63.75 116.047V131.25H116.25V116.051C120.049 116.96 123.803 118.046 127.5 119.306V150H135V122.239C136.088 122.722 137.138 123.221 138.143 123.735C142.406 125.902 145.568 128.137 147.57 130.275C149.539 132.375 150 133.924 150 135V150H30V135C30 133.924 30.4612 132.375 32.43 130.275C34.4325 128.137 37.5937 125.902 41.8575 123.735C43.9912 122.647 46.305 121.627 48.75 120.679V150H56.25V118.087Z" fill="#E70D2F"/>
</svg>
