<svg width="180" height="180" viewBox="0 0 180 180" fill="none" xmlns="http://www.w3.org/2000/svg">
<path d="M144.563 52.3125L105.188 12.9375C104.063 11.8125 102.938 11.25 101.25 11.25H45C38.8125 11.25 33.75 16.3125 33.75 22.5V157.5C33.75 163.688 38.8125 168.75 45 168.75H135C141.188 168.75 146.25 163.688 146.25 157.5V56.25C146.25 54.5625 145.688 53.4375 144.563 52.3125ZM101.25 24.75L132.75 56.25H101.25V24.75ZM135 157.5H45V22.5H90V56.25C90 62.4375 95.0625 67.5 101.25 67.5H135V157.5Z" fill="#E70D2F"/>
<path d="M56.25 123.75H123.75V135H56.25V123.75ZM56.25 90H123.75V101.25H56.25V90Z" fill="#E70D2F"/>
</svg>
