<svg width="180" height="180" viewBox="0 0 180 180" fill="none" xmlns="http://www.w3.org/2000/svg">
<path d="M90 168.75C46.575 168.75 11.25 133.425 11.25 90C11.25 46.575 46.575 11.25 90 11.25C133.425 11.25 168.75 46.575 168.75 90C168.75 133.425 133.425 168.75 90 168.75ZM90 22.5C52.7625 22.5 22.5 52.7625 22.5 90C22.5 127.238 52.7625 157.5 90 157.5C127.238 157.5 157.5 127.238 157.5 90C157.5 52.7625 127.238 22.5 90 22.5Z" fill="#E70D2F"/>
<path d="M112.5 118.125C111.487 118.125 110.475 117.9 109.575 117.338L81.4499 100.463C80.6168 99.9619 79.9293 99.252 79.4556 98.4033C78.982 97.5547 78.7387 96.5968 78.7499 95.625V50.625C78.7499 47.475 81.2249 45 84.3749 45C87.5249 45 89.9999 47.475 89.9999 50.625V92.475L115.425 107.662C116.472 108.304 117.282 109.27 117.73 110.413C118.179 111.557 118.243 112.815 117.913 113.998C117.582 115.181 116.875 116.224 115.898 116.969C114.921 117.713 113.728 118.119 112.5 118.125Z" fill="#E70D2F"/>
</svg>
